<?xml version="1.0" encoding="UTF-8" standalone="no"?>
<!-- Generator: Adobe Illustrator 19.2.1, SVG Export Plug-In . SVG Version: 6.00 Build 0)  -->

<svg
   version="1.1"
   id="layer"
   x="0px"
   y="0px"
   viewBox="0 0 512 512"
   xml:space="preserve"
   sodipodi:docname="dndz-square.svg"
   inkscape:version="1.1 (c68e22c387, 2021-05-23)"
   width="512"
   height="512"
   xmlns:inkscape="http://www.inkscape.org/namespaces/inkscape"
   xmlns:sodipodi="http://sodipodi.sourceforge.net/DTD/sodipodi-0.dtd"
   xmlns="http://www.w3.org/2000/svg"
   xmlns:svg="http://www.w3.org/2000/svg"><defs
   id="defs23" /><sodipodi:namedview
   id="namedview21"
   pagecolor="#505050"
   bordercolor="#eeeeee"
   borderopacity="1"
   inkscape:pageshadow="0"
   inkscape:pageopacity="0"
   inkscape:pagecheckerboard="false"
   showgrid="true"
   inkscape:zoom="0.50766871"
   inkscape:cx="247.20846"
   inkscape:cy="179.25076"
   inkscape:window-width="1368"
   inkscape:window-height="842"
   inkscape:window-x="-6"
   inkscape:window-y="-6"
   inkscape:window-maximized="1"
   inkscape:current-layer="g18"
   inkscape:snap-text-baseline="true"
   showborder="true"
   borderlayer="false"><inkscape:grid
     type="xygrid"
     id="grid4794" /></sodipodi:namedview>
<style
   type="text/css"
   id="style2">
	.st0{fill:#E40712;}
</style>
<g
   id="g18">
	<path
   id="path4"
   style="fill:#ffffff;fill-opacity:1;stroke:none;stroke-width:2.16206"
   class="st0"
   d="m 189.56845,166.04389 c -11.77418,0.45656 -19.97936,4.44057 -26.20391,11.08151 -3.23353,3.46955 -10.34664,11.92625 -9.05323,27.32237 1.07783,10.84234 6.89749,16.04682 6.46635,15.39627 -1.94012,-6.9391 -0.21566,-14.09444 2.37116,-19.29875 1.94013,6.07171 5.1738,13.01114 15.30554,18.21547 -0.86228,-4.77063 -0.21485,-11.27675 1.07855,-16.26423 -3.01795,-11.05919 4.09438,-20.16672 12.93271,-20.16672 14.01196,0 17.24678,17.78075 9.48631,29.27362 3.88024,5.85488 9.9156,10.84373 14.22697,14.74697 0.21557,0.21685 0.86313,0.86657 1.29426,1.30027 6.46707,-7.37279 10.99298,-19.08263 10.99298,-27.97335 0,-16.6972 -10.99298,-32.30899 -33.6277,-33.61006 -1.83233,-0.0814 -3.58796,-0.0886 -5.26999,-0.0233 z M 6,179.29363 l 0.429762,1.95291 c 0,0.65054 1.7256,15.39483 19.186671,28.40565 3.233528,2.60216 5.820879,4.98801 5.820879,13.44503 v 79.14958 c 0,8.45702 -1.724927,10.84259 -5.605168,13.01105 -4.311375,2.60217 -12.934368,7.58814 -12.934368,7.80497 l -3.018296,1.73592 h 70.92248 c 19.83232,0 32.33563,-3.25251 45.70088,-12.36008 2.58682,-1.73478 4.95766,-3.68651 6.89778,-5.20443 -1.29341,-10.19181 0.43062,-19.30051 1.72403,-24.50484 -0.21558,-0.43369 -3.87909,2.8204 -5.81922,7.15733 0,-1.95161 0.43017,-5.2048 1.07689,-10.84282 0.64671,-5.63802 4.312,-21.90197 18.53953,-31.00952 -0.6467,0 -1.72446,-0.43399 -2.37116,-0.43399 -1.94013,0 -7.76105,-0.43364 -15.95267,2.60222 3.23354,-4.98747 15.30521,-13.01096 19.83215,-15.39627 0.43113,-0.4337 1.0787,-0.6493 1.29427,-0.6493 -5.17365,-16.6972 -16.16867,-30.35885 -31.68962,-38.38219 -9.70059,-5.20431 -19.83115,-7.80692 -33.411982,-8.24061 H 59.459839 c -21.77244,0 -31.6881,-0.4333 -39.448576,-1.95124 -6.46706,-1.73478 -12.287234,-5.20443 -12.287234,-5.20443 z m 228.71844,0.21699 0.42976,1.95124 c 0,0.65053 1.72561,15.61336 19.18667,28.40732 3.4491,2.38531 5.82088,4.55431 5.82088,13.44503 v 5.85539 c 3.4491,-2.3853 7.7603,-4.55459 12.28724,-6.28937 -2.15569,2.16847 -5.3906,5.42049 -7.11514,9.1069 1.94013,-2.16848 15.3066,-10.40835 29.53415,-7.15565 -3.23354,0.65055 -7.97584,2.169 -12.28723,5.85539 1.07785,-0.65054 5.17284,-1.30195 8.83751,-1.30195 2.15569,0 4.09675,0.21727 6.46803,0.65097 v -8.88991 h 15.30387 c 20.04789,0 31.4739,12.57694 31.4739,35.12901 0,22.33522 -11.426,35.129 -31.4739,35.129 h -8.40609 c 5.82036,4.55376 9.48465,11.27513 9.48465,18.86477 0,5.20432 -1.72452,10.40975 -4.95804,14.31299 h 0.64713 c 19.83233,0 32.12004,-3.2525 45.70088,-12.36008 5.82035,-3.90324 10.77758,-8.4577 13.79555,-13.66202 9.05389,-11.05918 14.22696,-26.67198 14.22696,-42.71865 0,-26.02162 -12.93396,-48.35627 -34.92196,-59.84917 -9.7006,-5.2043 -19.83114,-7.59006 -33.41198,-8.2406 h -27.16301 c -21.55687,0 -31.90366,-0.21646 -39.44857,-1.95124 -6.46707,-1.30108 -12.28723,-5.20442 -12.28723,-5.20442 z m 155.15433,8.94833 v 31.91756 h 2.87559 c 0.59921,-2.16995 1.37925,-3.64802 2.33798,-4.43161 0.95874,-0.84386 2.36541,-1.26522 4.22296,-1.26522 h 61.38971 l -71.36552,96.74247 v 6.32942 h 107.31792 c 1.79763,0 3.17627,0.42302 4.13501,1.26689 0.95873,0.84387 1.73711,2.35012 2.33632,4.52007 H 506 v -31.91589 h -2.87726 c -0.59921,2.16995 -1.37759,3.6762 -2.33632,4.52007 -0.95873,0.84387 -2.33738,1.26522 -4.13501,1.26522 h -63.81563 l 72.17526,-97.91755 v -5.15435 H 399.3093 c -1.85755,0 -3.26422,-0.42134 -4.22296,-1.26521 -0.89881,-0.84387 -1.67885,-2.38165 -2.33798,-4.61187 z m -206.02896,10.56741 c -3.23352,3.25269 -5.1737,16.04819 -2.58687,22.5536 4.95808,3.03587 9.05366,7.8063 9.70036,12.36008 -4.52694,-10.40865 -23.06625,-12.36157 -28.2399,-24.72182 -1.29341,4.55376 -0.64541,10.19246 1.9414,13.66201 0,0 -4.52804,-1.73396 -14.22863,-1.30027 3.4491,1.08424 10.34707,6.93776 9.70036,10.62416 -1.07784,3.68639 -14.22627,7.59061 -20.69333,14.09601 9.70059,-1.95163 14.22646,-0.4346 15.95101,3.68549 1.07785,3.03586 -0.4302,6.94001 -1.0769,11.49379 3.23352,-3.68639 14.2274,-11.0593 22.41901,-12.79407 -1.94011,-0.65054 -6.89905,-1.73425 -8.83917,-1.73425 5.82036,-6.9391 18.75496,-9.10756 25.86873,-7.58964 -4.52695,-0.43368 -13.58059,2.38375 -17.24526,5.20276 3.23354,0.65054 6.25068,1.30264 8.83751,2.38688 -4.31137,1.73478 -9.69998,6.93892 -11.6401,12.36008 5.60479,-3.90323 16.81347,-3.03577 18.75359,5.20442 1.29341,5.63801 -2.58651,10.40788 -4.52662,11.49212 1.72455,0.43369 5.60452,-7e-4 7.11349,-1.08494 -0.6467,2.38531 -3.87939,6.28979 -6.25064,6.94033 5.82035,0 14.22688,-3.90453 16.59814,-9.54254 0,0 -3.66477,1.30246 -5.17375,-0.43231 -1.72455,-1.73478 0.64713,-8.89159 0.64713,-8.89159 0,0 -2.37078,3.03672 -4.3109,1.30194 -1.94012,-1.95161 0.64619,-8.45679 1.72403,-9.75787 -1.94011,-0.65053 -7.1134,-1.30179 -9.48465,-1.08494 6.46706,-2.38532 21.12573,-3.68684 22.63473,-0.65098 1.2934,2.38532 -1.93974,6.93868 -1.93974,6.93868 2.58682,-0.4337 10.13182,3.3e-4 12.71866,3.03618 2.5868,3.2527 1.07689,7.58964 1.07689,7.58964 5.82036,-3.03586 10.99377,-12.14242 9.70036,-21.24999 -0.64672,1.95162 -3.23241,4.98619 -5.81922,5.63673 0.43113,-3.03585 -1.94102,-4.55388 -3.88114,-5.20441 1.07784,-5.63802 -1.29304,-12.79255 -9.48465,-20.59903 -6.8982,-6.93909 -19.83171,-16.04677 -19.18501,-27.97334 -1.94011,2.60215 -3.66581,10.19122 -1.72569,14.31131 5.60479,6.50542 17.46131,13.66099 20.47928,24.72017 -5.17365,-13.01079 -30.39479,-23.20296 -29.53251,-40.98439 z M 68.730438,221.14598 h 15.305529 c 20.047903,0 31.472243,12.79379 31.472243,35.12901 0,22.55207 -11.42435,35.129 -31.472243,35.129 H 68.730438 Z m 212.334352,7.15566 c -10.99401,0.43368 -19.40118,13.87787 -22.63472,12.1431 -2.15569,-1.08423 3.0183,-7.58964 3.0183,-7.58964 -10.34731,5.85485 -18.75487,18.64959 -20.69499,26.45607 9.48502,-11.70972 27.80814,-19.95024 39.88,-18.21547 -21.12573,0.86738 -39.2322,19.73283 -48.28609,32.5268 1.72456,0.65053 3.23348,1.30114 4.95803,2.6022 1.94012,1.51794 4.95685,3.90253 8.19039,6.50469 1.50898,-3.90323 7.33047,-16.48002 16.8155,-27.32237 7.5449,-8.89072 20.69456,-9.54078 27.59276,-4.33646 4.52695,-3.90324 19.61686,-8.0237 27.80848,-5.63839 -4.95808,-5.63801 -15.30658,-12.79407 -26.94728,-12.79407 -9.26947,0 -14.87331,4.55383 -16.16672,2.60221 -1.72456,-3.03586 6.46635,-6.93867 6.46634,-6.93867 z m -76.9574,9.97487 c 6.46706,2.819 8.40609,8.8899 8.40609,8.8899 -5.60479,0 -7.11267,-4.33613 -8.40609,-8.8899 z m -51.95153,11.70911 c 0,0 -17.0307,11.27575 -18.75524,29.92457 0,10e-6 2.37077,-3.25194 4.3109,-3.90248 1.29342,-0.65054 2.58769,-7.5e-4 1.29427,3.90248 -0.43113,1.30109 -11.64051,31.87788 10.34749,52.69517 0,0 -2.37196,-6.28897 -1.07855,-8.2406 0.6467,-1.08423 1.72488,-1.08381 3.0183,0.65096 1.07785,1.30109 1.94044,2.38441 3.01829,3.68549 1.50898,2.16847 3.44798,4.12062 5.81922,5.85539 6.46706,4.77063 15.52129,8.45761 25.65302,8.45761 27.80837,0 42.46703,-20.38429 50.2275,-36.43094 -0.43113,-0.4337 -0.64576,-0.65126 -1.0769,-1.08496 -4.31137,-3.68639 -10.34825,-8.89038 -14.01292,-12.14308 -4.95808,8.89072 -16.5992,21.90262 -28.2399,21.90262 -20.69461,0 -31.0412,-29.92545 -6.46635,-53.99544 -1.29342,-0.65053 -2.80207,-1.08494 -4.52663,-1.08494 -6.46705,0 -11.64176,5.85539 -11.64176,5.85539 0,-6.28856 1.94131,-10.40919 4.31257,-13.44504 -7.11377,2.60216 -19.83262,11.49346 -23.06615,16.04725 0.21558,-11.70972 3.23271,-15.17961 1.2926,-18.21547 z m 146.80134,0.21699 c -2.37125,1.08424 -4.52731,1.95194 -5.60517,3.03618 l -1.72403,1.73425 -1.93974,-1.30027 c -2.37124,-1.95162 -5.82,-3.03619 -9.48466,-3.03619 -5.82035,0 -11.64085,2.60175 -15.30552,6.93868 -1.72455,1.51792 -3.01915,3.46964 -4.31256,5.20441 v 31.87749 c 1.29341,0.86739 2.58772,1.30028 3.88114,1.30028 1.50898,0 3.44877,-0.86744 4.52661,-2.60221 1.29341,-1.95162 2.80249,-7.80701 -2.37116,-13.44504 2.80239,0.65055 9.26964,5.42213 10.34749,6.50637 0,0 5.1737,-1.08495 10.1318,-1.08495 4.0958,0 7.76001,0.65044 11.8558,2.38521 z m -95.71265,5.20441 c -1.29341,2.38532 -1.50828,6.50502 1.07855,9.54088 2.37126,2.81901 6.46582,4.55393 8.19038,7.80664 1.94011,3.90324 -1.50856,9.75788 8.19204,17.34751 4.52695,3.46956 12.07285,9.32508 16.59979,13.66201 7.76047,6.9391 3.44878,15.61327 4.52663,23.2029 1.2934,8.67388 8.40742,13.66122 12.93436,14.96231 -4.31138,-3.90325 -5.82036,-13.01159 0,-18.86645 0,7.37279 5.38913,18.86692 17.46098,22.11962 12.50297,3.2527 26.08312,-3.90423 29.10109,-9.10856 -4.74251,2.38532 -14.22787,-0.2161 -18.10812,-3.90249 15.08981,1.95162 28.45588,-8.45799 28.88703,-21.68564 0,-13.0108 -12.50266,-23.20205 -27.16134,-21.90096 3.88024,0.65053 9.70035,5.20522 9.70035,11.49378 0,9.97495 -12.71838,13.44391 -19.83215,11.70912 7.54491,-5.20431 6.46702,-20.16681 -2.58686,-25.37113 3.01796,8.45701 -6.03578,16.69683 -14.8741,9.54088 -4.74251,-3.90324 -16.16847,-13.22758 -21.34212,-17.56451 -4.95808,-4.33693 -10.99454,-1.95071 -13.3658,-3.68549 -2.58682,-2.38531 -0.86194,-7.80654 -4.52661,-10.19185 -3.23355,-1.51793 -6.03569,-0.65183 -9.70036,-1.95291 -3.23354,-1.30108 -5.60488,-3.90295 -5.17374,-7.15566 z m 76.95906,35.34599 c 1.29341,2.60217 2.37117,5.85588 2.37117,9.10858 0,3.25271 -0.64799,6.50474 -1.9414,9.1069 5.17365,-0.65055 10.99463,-3.25203 10.99463,-9.1069 0,-4.77062 -4.95808,-8.02391 -7.54491,-8.4576 z"
   inkscape:label="path4" />
	
	
	
	
	
	
</g>
</svg>
